<?xml version="1.0" standalone="no"?>
<!DOCTYPE svg PUBLIC "-//W3C//DTD SVG 20010904//EN"
 "http://www.w3.org/TR/2001/REC-SVG-20010904/DTD/svg10.dtd">
<svg version="1.0" xmlns="http://www.w3.org/2000/svg"
 width="596.000000pt" height="766.000000pt" viewBox="0 0 596.000000 766.000000"
 preserveAspectRatio="xMidYMid meet">

<g transform="translate(0.000000,766.000000) scale(0.100000,-0.100000)"
fill="#000000" stroke="none">
<path d="M1470 6670 c-19 -5 -36 -13 -38 -19 -2 -6 -10 -11 -17 -11 -18 0 -85
-67 -85 -84 0 -8 -5 -16 -11 -18 -6 -2 -14 -22 -18 -44 -9 -46 -4 -380 5 -395
3 -5 0 -9 -6 -9 -6 0 -8 -5 -5 -10 4 -6 8 -126 11 -268 2 -141 6 -383 9 -537
9 -459 22 -1193 30 -1610 3 -165 7 -424 10 -575 3 -151 7 -387 10 -525 18
-996 16 -937 33 -943 7 -2 12 -12 12 -23 0 -11 7 -22 15 -25 8 -4 15 -10 15
-16 0 -16 52 -58 71 -58 11 0 19 -4 19 -9 0 -29 176 -16 220 17 12 10 123 117
246 239 124 123 230 223 236 223 6 0 8 3 5 6 -8 8 31 44 46 44 6 0 8 2 5 5 -5
5 248 265 258 265 2 0 4 -9 4 -19 0 -11 7 -26 15 -35 8 -8 18 -29 21 -45 4
-17 10 -31 15 -31 4 0 13 -18 19 -40 6 -22 15 -40 20 -40 6 0 10 -7 10 -15 0
-8 9 -32 20 -52 11 -21 20 -43 20 -50 0 -7 4 -13 10 -13 5 0 12 -16 16 -35 3
-19 10 -35 15 -35 4 0 13 -18 19 -40 6 -22 15 -40 20 -40 6 0 10 -7 10 -15 0
-8 9 -32 20 -52 11 -21 20 -43 20 -50 0 -7 4 -13 9 -13 5 0 13 -15 16 -33 4
-17 13 -39 20 -47 7 -8 15 -27 19 -42 3 -16 11 -28 16 -28 6 0 10 -7 10 -15 0
-8 9 -32 20 -52 11 -21 20 -43 20 -50 0 -7 5 -13 10 -13 6 0 10 -6 10 -13 0
-7 9 -30 20 -52 11 -22 20 -45 20 -51 0 -7 6 -19 14 -26 7 -8 17 -29 21 -46 3
-18 10 -32 15 -32 5 0 11 -13 15 -29 3 -16 13 -35 21 -42 8 -6 14 -18 14 -25
0 -8 9 -31 20 -51 11 -21 20 -43 20 -50 0 -7 5 -13 10 -13 6 0 10 -6 10 -13 0
-7 9 -29 20 -50 11 -20 20 -42 20 -47 0 -21 66 -90 85 -90 8 0 15 -4 15 -9 0
-5 28 -14 63 -21 65 -12 148 -2 155 19 2 6 10 11 18 11 8 0 31 9 51 20 21 11
43 20 50 20 7 0 13 4 13 10 0 5 16 12 35 16 19 3 39 12 46 20 6 8 20 14 30 14
9 0 24 6 31 14 8 7 29 17 46 21 18 3 32 10 32 15 0 5 14 12 32 15 17 4 38 14
46 21 7 8 22 14 31 14 10 0 24 7 31 15 7 8 21 15 31 15 9 0 24 7 33 15 8 8 21
15 28 15 7 0 30 9 51 20 20 11 43 20 51 20 8 0 16 4 18 8 4 12 113 62 132 62
9 0 16 5 16 10 0 6 6 10 13 10 7 0 29 9 50 20 20 11 44 20 52 20 8 0 15 4 15
10 0 5 18 14 40 20 22 6 40 15 40 20 0 6 6 10 12 10 25 0 107 65 113 90 4 13
11 28 18 32 27 17 8 215 -23 238 -4 3 -13 22 -19 42 -7 21 -17 40 -22 43 -5 4
-9 14 -9 24 0 10 -7 24 -15 31 -8 7 -15 21 -15 31 0 9 -7 24 -15 33 -8 8 -15
20 -15 27 0 7 -22 58 -49 113 -27 56 -53 113 -56 128 -4 16 -11 25 -16 22 -5
-3 -9 2 -9 11 0 10 -18 54 -40 100 -22 46 -40 88 -40 94 0 6 -4 11 -10 11 -5
0 -12 16 -16 35 -3 19 -10 35 -15 35 -5 0 -9 5 -9 11 0 6 -18 48 -40 94 -22
46 -40 90 -40 100 0 9 -4 14 -9 11 -5 -4 -13 8 -16 26 -4 17 -14 38 -21 46 -8
7 -14 19 -14 26 0 6 -9 29 -20 51 -11 22 -20 45 -20 52 0 7 -4 13 -10 13 -5 0
-10 6 -10 13 0 7 -9 29 -20 50 -11 20 -20 42 -20 48 0 6 -7 17 -15 26 -26 26
-14 48 25 47 19 -1 80 5 134 13 55 7 106 11 114 8 7 -2 59 2 115 10 55 9 107
13 115 10 7 -2 58 2 112 10 54 8 105 12 112 10 8 -3 58 1 112 9 54 8 104 12
111 10 23 -9 156 15 172 31 8 8 21 15 29 15 8 0 12 5 9 10 -3 6 -2 10 3 10 14
0 52 36 45 44 -3 3 -1 6 5 6 7 0 12 7 12 15 0 8 5 15 12 15 6 0 8 3 5 6 -3 4
-2 15 4 26 18 33 12 115 -11 163 -21 43 -132 165 -150 165 -4 0 -28 19 -53 43
-25 23 -64 58 -87 77 -23 19 -61 53 -85 75 -23 22 -56 50 -71 62 -38 29 -116
98 -165 146 -21 20 -39 35 -39 32 0 -3 -17 11 -39 32 -46 45 -93 83 -102 83
-4 0 -11 9 -14 20 -4 11 -10 18 -14 16 -4 -3 -14 4 -21 15 -8 10 -18 19 -22
19 -4 0 -26 17 -47 38 -22 20 -58 53 -82 72 -23 19 -63 56 -90 81 -27 26 -49
45 -49 43 0 -5 -34 24 -84 71 -24 22 -62 56 -86 75 -24 19 -68 59 -97 88 -30
28 -58 52 -62 52 -4 0 -38 29 -76 65 -38 35 -71 63 -72 61 -2 -2 -32 24 -67
58 -34 34 -75 70 -90 81 -15 11 -47 38 -71 60 -24 22 -62 56 -85 75 -23 19
-61 53 -85 75 -62 56 -85 76 -85 70 0 -3 -22 17 -49 43 -26 26 -67 63 -90 82
-23 19 -60 52 -82 73 -21 20 -41 37 -44 37 -3 0 -23 17 -44 38 -22 20 -51 46
-67 57 -15 11 -47 38 -71 60 -23 22 -61 56 -84 75 -22 19 -60 53 -84 75 -24
22 -55 49 -70 60 -15 10 -46 37 -70 60 -23 22 -61 56 -85 75 -24 19 -63 54
-88 78 -24 23 -48 42 -52 42 -4 0 -34 26 -67 58 -33 31 -80 73 -104 92 -23 19
-65 56 -93 83 -27 26 -53 47 -57 47 -4 0 -32 24 -62 53 -30 28 -68 63 -86 77
-17 14 -50 42 -74 63 -23 20 -48 37 -54 37 -7 0 -13 4 -13 9 0 10 -88 32 -118
30 -9 -1 -33 -5 -52 -9z m391 -840 c29 -27 56 -50 60 -50 4 0 31 -24 61 -52
29 -29 69 -65 88 -79 19 -15 64 -54 100 -88 36 -33 68 -61 72 -61 3 0 26 -19
50 -42 25 -24 64 -59 87 -78 24 -19 62 -53 86 -75 23 -22 56 -50 71 -62 38
-29 116 -98 165 -145 21 -21 39 -36 39 -33 0 3 17 -11 39 -32 46 -45 93 -83
102 -83 4 0 11 -9 14 -20 4 -11 10 -18 14 -16 4 3 14 -4 21 -15 8 -10 18 -19
22 -19 4 0 25 -17 47 -37 21 -21 51 -48 67 -60 16 -12 57 -49 92 -81 34 -32
62 -57 62 -55 0 4 36 -26 84 -72 24 -22 62 -56 86 -75 24 -19 65 -56 92 -82
26 -26 48 -46 48 -43 0 6 29 -19 98 -82 30 -29 62 -53 69 -53 7 0 13 -7 13
-15 0 -8 4 -15 9 -15 5 0 28 -19 53 -42 24 -24 61 -56 82 -71 20 -16 54 -45
75 -65 44 -43 81 -73 81 -68 0 2 30 -25 66 -60 36 -34 77 -71 91 -81 13 -10
44 -36 68 -58 24 -22 62 -56 84 -75 23 -19 62 -53 85 -75 69 -63 84 -74 92
-67 3 4 5 0 2 -8 -5 -17 -53 -27 -157 -34 -70 -4 -153 -12 -388 -38 -60 -6
-123 -10 -140 -9 -47 2 -212 -28 -229 -42 -79 -66 -105 -101 -118 -164 -9 -38
11 -152 30 -174 8 -8 14 -23 14 -32 0 -8 6 -22 14 -29 7 -8 17 -29 21 -46 3
-18 11 -32 16 -32 5 0 9 -6 9 -13 0 -7 15 -44 34 -81 19 -37 37 -79 40 -92 4
-13 11 -24 16 -24 5 0 12 -16 16 -35 3 -19 10 -35 15 -35 4 0 13 -18 19 -40 6
-22 15 -40 20 -40 6 0 10 -7 10 -15 0 -8 9 -32 20 -52 11 -21 20 -43 20 -50 0
-7 5 -13 10 -13 6 0 10 -6 10 -13 0 -7 9 -29 20 -50 11 -20 20 -43 20 -51 0
-7 7 -19 15 -26 8 -7 15 -21 15 -31 0 -9 6 -24 14 -31 7 -8 17 -29 21 -46 3
-18 11 -32 16 -32 5 0 9 -6 9 -13 0 -7 9 -30 20 -52 11 -22 20 -44 20 -51 0
-6 7 -17 15 -24 8 -7 15 -21 15 -31 0 -9 6 -24 14 -31 7 -8 17 -29 21 -46 3
-18 11 -32 16 -32 5 0 9 -6 9 -13 0 -7 15 -44 34 -81 19 -37 37 -79 40 -92 4
-13 10 -24 15 -24 5 0 13 -15 16 -33 4 -17 13 -35 19 -39 12 -8 -38 -58 -59
-58 -6 0 -37 -13 -68 -29 -31 -16 -67 -31 -81 -35 -14 -3 -26 -10 -26 -15 0
-5 -14 -13 -32 -16 -17 -4 -38 -14 -46 -21 -7 -8 -20 -14 -27 -14 -8 0 -44
-16 -82 -35 -37 -19 -74 -35 -80 -35 -7 0 -13 -4 -13 -9 0 -5 -14 -13 -32 -16
-17 -4 -38 -14 -46 -21 -20 -21 -53 -17 -59 6 -3 11 -9 20 -13 20 -5 0 -12 14
-15 32 -4 17 -14 38 -21 46 -8 7 -14 22 -14 31 0 10 -6 23 -13 29 -7 6 -24 40
-37 76 -14 36 -28 66 -32 66 -5 0 -8 6 -8 13 0 7 -9 29 -20 50 -11 20 -20 43
-20 51 0 7 -7 19 -15 26 -8 7 -15 20 -15 30 0 10 -6 23 -14 29 -8 7 -17 27
-20 46 -4 19 -11 35 -16 35 -5 0 -12 11 -16 24 -3 13 -21 55 -40 92 -19 37
-34 74 -34 81 0 7 -4 13 -9 13 -5 0 -13 14 -16 32 -4 17 -14 38 -21 46 -8 7
-14 22 -14 31 0 10 -7 24 -15 31 -8 7 -15 18 -15 24 0 7 -9 29 -20 51 -11 22
-20 45 -20 52 0 7 -4 13 -9 13 -5 0 -13 14 -16 32 -4 17 -14 38 -21 46 -8 7
-14 22 -14 33 0 10 -4 19 -10 19 -5 0 -13 12 -16 28 -4 15 -12 34 -19 42 -7 8
-16 30 -20 48 -3 17 -11 32 -16 32 -5 0 -9 5 -9 12 0 15 -72 159 -87 176 -7 7
-13 17 -13 20 0 4 -16 16 -35 26 -19 11 -35 23 -35 27 0 4 -8 6 -17 5 -10 -2
-21 1 -24 6 -3 5 -31 10 -62 11 -54 1 -111 -19 -145 -50 -7 -7 -18 -13 -23
-13 -6 0 -7 -4 -4 -10 3 -5 2 -10 -4 -10 -6 0 -139 -129 -296 -286 -158 -157
-289 -283 -292 -280 -3 3 -7 81 -9 173 -6 275 -16 848 -29 1633 -3 184 -8 443
-10 575 -2 132 -7 386 -10 565 -3 179 -7 396 -9 483 -2 120 0 157 9 157 7 0
37 -22 66 -50z"/>
</g>
</svg>
